<mxfile host="65bd71144e">
    <diagram id="p_cR1JXBMW-e67f_xLhA" name="Page-1">
        <mxGraphModel dx="1493" dy="1175" grid="0" gridSize="10" guides="1" tooltips="1" connect="1" arrows="1" fold="1" page="1" pageScale="1" pageWidth="827" pageHeight="1169" background="#ffffff" math="0" shadow="0">
            <root>
                <mxCell id="0"/>
                <mxCell id="1" parent="0"/>
                <mxCell id="12" style="edgeStyle=none;html=1;exitX=1;exitY=0.5;exitDx=0;exitDy=0;exitPerimeter=0;entryX=0;entryY=0.5;entryDx=0;entryDy=0;entryPerimeter=0;strokeColor=#424242;" edge="1" parent="1" source="2" target="4">
                    <mxGeometry relative="1" as="geometry"/>
                </mxCell>
                <mxCell id="2" value="" style="sketch=0;points=[[0,0,0],[0.25,0,0],[0.5,0,0],[0.75,0,0],[1,0,0],[0,1,0],[0.25,1,0],[0.5,1,0],[0.75,1,0],[1,1,0],[0,0.25,0],[0,0.5,0],[0,0.75,0],[1,0.25,0],[1,0.5,0],[1,0.75,0]];outlineConnect=0;fontColor=#232F3E;gradientColor=#F78E04;gradientDirection=north;fillColor=#D05C17;strokeColor=#ffffff;dashed=0;verticalLabelPosition=bottom;verticalAlign=top;align=center;html=1;fontSize=12;fontStyle=0;aspect=fixed;shape=mxgraph.aws4.resourceIcon;resIcon=mxgraph.aws4.lambda;" vertex="1" parent="1">
                    <mxGeometry x="220" y="400" width="78" height="78" as="geometry"/>
                </mxCell>
                <mxCell id="14" style="edgeStyle=none;html=1;exitX=0.5;exitY=1;exitDx=0;exitDy=0;exitPerimeter=0;entryX=0.5;entryY=0;entryDx=0;entryDy=0;strokeColor=#424242;" edge="1" parent="1" source="3" target="9">
                    <mxGeometry relative="1" as="geometry"/>
                </mxCell>
                <mxCell id="16" style="edgeStyle=none;html=1;exitX=0.5;exitY=0;exitDx=0;exitDy=0;exitPerimeter=0;entryX=1;entryY=0.5;entryDx=0;entryDy=0;strokeColor=#424242;" edge="1" parent="1" source="3" target="6">
                    <mxGeometry relative="1" as="geometry">
                        <Array as="points">
                            <mxPoint x="550" y="225"/>
                        </Array>
                    </mxGeometry>
                </mxCell>
                <mxCell id="3" value="" style="sketch=0;points=[[0,0,0],[0.25,0,0],[0.5,0,0],[0.75,0,0],[1,0,0],[0,1,0],[0.25,1,0],[0.5,1,0],[0.75,1,0],[1,1,0],[0,0.25,0],[0,0.5,0],[0,0.75,0],[1,0.25,0],[1,0.5,0],[1,0.75,0]];outlineConnect=0;fontColor=#232F3E;gradientColor=#F78E04;gradientDirection=north;fillColor=#D05C17;strokeColor=#ffffff;dashed=0;verticalLabelPosition=bottom;verticalAlign=top;align=center;html=1;fontSize=12;fontStyle=0;aspect=fixed;shape=mxgraph.aws4.resourceIcon;resIcon=mxgraph.aws4.lambda;" vertex="1" parent="1">
                    <mxGeometry x="510" y="400" width="78" height="78" as="geometry"/>
                </mxCell>
                <mxCell id="13" style="edgeStyle=none;html=1;exitX=1;exitY=0.5;exitDx=0;exitDy=0;exitPerimeter=0;entryX=0;entryY=0.5;entryDx=0;entryDy=0;entryPerimeter=0;strokeColor=#424242;" edge="1" parent="1" source="4" target="3">
                    <mxGeometry relative="1" as="geometry"/>
                </mxCell>
                <mxCell id="4" value="" style="sketch=0;points=[[0,0,0],[0.25,0,0],[0.5,0,0],[0.75,0,0],[1,0,0],[0,1,0],[0.25,1,0],[0.5,1,0],[0.75,1,0],[1,1,0],[0,0.25,0],[0,0.5,0],[0,0.75,0],[1,0.25,0],[1,0.5,0],[1,0.75,0]];outlineConnect=0;fontColor=#232F3E;gradientColor=#FF4F8B;gradientDirection=north;fillColor=#BC1356;strokeColor=#ffffff;dashed=0;verticalLabelPosition=bottom;verticalAlign=top;align=center;html=1;fontSize=12;fontStyle=0;aspect=fixed;shape=mxgraph.aws4.resourceIcon;resIcon=mxgraph.aws4.sqs;" vertex="1" parent="1">
                    <mxGeometry x="360" y="400" width="78" height="78" as="geometry"/>
                </mxCell>
                <mxCell id="11" style="edgeStyle=none;html=1;exitX=1;exitY=0.5;exitDx=0;exitDy=0;exitPerimeter=0;entryX=0;entryY=0.5;entryDx=0;entryDy=0;entryPerimeter=0;strokeColor=#424242;" edge="1" parent="1" source="5" target="2">
                    <mxGeometry relative="1" as="geometry"/>
                </mxCell>
                <mxCell id="5" value="" style="sketch=0;points=[[0,0,0],[0.25,0,0],[0.5,0,0],[0.75,0,0],[1,0,0],[0,1,0],[0.25,1,0],[0.5,1,0],[0.75,1,0],[1,1,0],[0,0.25,0],[0,0.5,0],[0,0.75,0],[1,0.25,0],[1,0.5,0],[1,0.75,0]];outlineConnect=0;fontColor=#232F3E;gradientColor=#FF4F8B;gradientDirection=north;fillColor=#BC1356;strokeColor=#ffffff;dashed=0;verticalLabelPosition=bottom;verticalAlign=top;align=center;html=1;fontSize=12;fontStyle=0;aspect=fixed;shape=mxgraph.aws4.resourceIcon;resIcon=mxgraph.aws4.api_gateway;" vertex="1" parent="1">
                    <mxGeometry x="80" y="400" width="78" height="78" as="geometry"/>
                </mxCell>
                <mxCell id="10" style="edgeStyle=none;html=1;entryX=0.5;entryY=0;entryDx=0;entryDy=0;entryPerimeter=0;strokeColor=#424242;" edge="1" parent="1" source="6" target="5">
                    <mxGeometry relative="1" as="geometry">
                        <Array as="points">
                            <mxPoint x="119" y="225"/>
                        </Array>
                    </mxGeometry>
                </mxCell>
                <mxCell id="6" value="" style="shape=image;verticalLabelPosition=bottom;labelBackgroundColor=default;verticalAlign=top;aspect=fixed;imageAspect=0;image=data:image/png,iVBORw0KGgoAAAANSUhEUgAAAIcAAAB+CAYAAAAOegLbAAABWmlDQ1BJQ0MgUHJvZmlsZQAAKJFtkMFLAkEYxd+WoYSHCKFLoRAEwSalXiI6mIFFHra1oLqt46aB2ji7EUEEQccO/QPeOvYHVKe8dykjCIIOXboHEpRM32ilVgMf34/Hm5nHA3p8FucFD4BiyRVmci60tr4R8r7AhyACiGLcYg6PG0aKLPje3ad+D03t2oR6C8/60OFsPljjo+mZ2+PHv/6u05+1HUb7gybMuHABTSc2dl2ueJ84ICgU8YniXItPFWdafN70rJgJ4mviAZa3ssTqbz3Toec6uFjYYV8ZVHq/XVpN0x6kGUYKSYSwgHmYtGNYon7+98ea/gS2wbEHgS3kkIdLt+KkcBRgEy+iBIYwdOIIJmliquff/bW1gztg+ongqq0t3wAXRxT9rK2NTVGUClCtcktYP61qdY+zGY202C+AvjcpX0cA7yXQEFK+V6RsUIe9D/RF+RMwG2LTUMD3uwAAAFZlWElmTU0AKgAAAAgAAYdpAAQAAAABAAAAGgAAAAAAA5KGAAcAAAASAAAARKACAAQAAAABAAAAh6ADAAQAAAABAAAAfgAAAABBU0NJSQAAAFNjcmVlbnNob3SDp3V+AAAB1mlUWHRYTUw6Y29tLmFkb2JlLnhtcAAAAAAAPHg6eG1wbWV0YSB4bWxuczp4PSJhZG9iZTpuczptZXRhLyIgeDp4bXB0az0iWE1QIENvcmUgNi4wLjAiPgogICA8cmRmOlJERiB4bWxuczpyZGY9Imh0dHA6Ly93d3cudzMub3JnLzE5OTkvMDIvMjItcmRmLXN5bnRheC1ucyMiPgogICAgICA8cmRmOkRlc2NyaXB0aW9uIHJkZjphYm91dD0iIgogICAgICAgICAgICB4bWxuczpleGlmPSJodHRwOi8vbnMuYWRvYmUuY29tL2V4aWYvMS4wLyI+CiAgICAgICAgIDxleGlmOlBpeGVsWURpbWVuc2lvbj4xMjY8L2V4aWY6UGl4ZWxZRGltZW5zaW9uPgogICAgICAgICA8ZXhpZjpQaXhlbFhEaW1lbnNpb24+MTM1PC9leGlmOlBpeGVsWERpbWVuc2lvbj4KICAgICAgICAgPGV4aWY6VXNlckNvbW1lbnQ+U2NyZWVuc2hvdDwvZXhpZjpVc2VyQ29tbWVudD4KICAgICAgPC9yZGY6RGVzY3JpcHRpb24+CiAgIDwvcmRmOlJERj4KPC94OnhtcG1ldGE+CrF47iIAADAhSURBVHgB7Z15kBzXfd9/PT3nzl7YXdwgQIAkREqkKFEySVGmLjqRZIkO5Vhlu5xyIkvlnE6Vy0nKyT9JKpWUK1WxozhVViqJy7JTpdLlyFIsUfdBUzcpiqR4gAAogCDuvXfn7u58vr/eIbDLGYiLnSVmwX3A7Fw9r1+/3/f97vfrIKHZZtucgQ4zkOnw2eZHmzPgM7AJjk0gdJ2BTXB0nZrNLzbBsYmBrjOwCY6uU7P5xSY4NjHQdQY2wdF1aja/2ATHJga6zsAmOLpOzeYXGxYcSSOyyBatnlStFpk18PO24oa1mmZxxHetusXWMt5alUfMH72bS+YsSiJL6pFVk3pXBCT8sB7FNttqcB6zKI74fWL6hd7z0uRb1mt9VuNs+kDnbupZh+jkHdpGcUoHG9V9vpgsWCkaTKc+rFsGYFgma82gKLpZxgILW5AOYomSjXxs2aBlwUJoQXHAGqFZvlmzIF/sQD6z+SS2cjOhF/5lA0vUT4vXBfWWADCRP6DPdH3FNaBTCK0FoAph3mI+ngU6WwJOtEHbhgUHNLA4hnjZKiRK7FS9ZA+fie1Yo2qzCzUwEdhgLmfXjg/ZwZ2B3cRRIRwjDiORlFUdWQOil4JsR9IlLfoPAUHAbxpNy+Rz9tzcOXtw8mk7Oz1p52emLMxkbOuWCds6usXuHjloO0YnrCHWFWZtIMhZAF6DfMfuN8SHGxYcCau6matbcyFjX3gusi/PVG2uElkdgsSZvGWKZYhasbg2zUqO7c5rttk7dw3YdVvgKsEcKz4LWMpa/B1bHTFigCKfy9pPF87aXz77ffvO8UesOjtrluNHWViDREsrtqCV2NaJXXbnjpvs7xy8w3YWx9LPs4BwSXAHQZcTdTx7f3zY9+DoJp/jqGZPTJl99ETFjswWESEhnOScZZMhi0WHUH8gHKw9CyEbEHpkMLF37xq2+3YOWBZRhADQIu/YIlBWySX21eOP2ud+8i07C0CSuAUmUjGR0L2TWzKMFsXSOTK2b+s+e9+r32J377zJcnU+K+b8+01w+DT09k83cDwzHdsfHj5up+fKVmoVrBkvWjBchFsgatAEk7gJ8QLLSP6jAITIoRhdwxqTdu91Y/b+a4YsHzYRDSnxVo46qTbsk889ZB9/6H6rBRUrFPIWVVA70SsMceaaqNCR4Y+4A+AIAI4Yzkg4ar/5pnvtb2+/CbwwCrjGRgTHEtNbOTX98z5BiYzEkqsz1oDYCbM/BWv4L4ebNjNbhuiBtfJ8ny9xDAQS4ZIsxOA9yqmAoSaiJvVpK+UL9rmjgX0dcAWiJIsb4YQ1U3XLxnWNqGkPLx6xzzzxJatnKpajj2aDsw8WLeB8ARwiQN8IUEYDWIh/FnIeAJJFxCwgtj7+8OftdOs8Ikf9x7aoYVWbjikdtxFa34ODKYUAojNWBZPaQlf4zKFJm5o8h0rQsEwOojP5MSyfw7q2RMI/n7FKU8c37W+OnbNzCeBR31geQRYFcunXC5mmffInD9hcbR4DiONlrXBctNDd9DVMa+dyiLCE/qYA85/++GtYRbHxP5Vy0kFk5SxZOF0H2ydfbABwwLWZz6qUTFuwM9XEvnkKpwWKYiaPwqArYLmLuWSZ/K4NM1QmaDMqoTck9vRUxZ6eS/0RGTiROIGWtej2+Pnj9sS5I7zBwuGDBHRmOV/Y1i47nCTEAlIfMX1LSY3p7AcnHrOj82f0jUlTCSRihOA2Cjv0008f9T040Bqc9S9ihubQHh8/07D5TBmOASeBcDFOKokacZgIonRrGYkXABIiBjIQOQrL9p1jVX2E5SLSxSl4IOoDRx51MZKN6B//RdSCK0HUONVFO55Cfg8xBTnBUIAsC+Bq1UX77nNP8Vtki/rngIzQJ4BsgNb/4JD+AJvPQtwoLtqzCy3LwEpiUVWEZrJD5H1Gq1bU6dKSUNwlB4ufd90ihCs8MVWzhSaEo48Wvw2wcObxkzx15llWekpEiZQQjhREcIRLgCOGKwiAGY51joa8Etd5cvo5ayDyYukZ9C/OsUGw4Uy5y3T2x8dO76BqJbhGo5WBaxRQ7Ga0EOHOiApWaoTuocl30dBl2FGAFxXLxeI5S3IAKsFULZas5pyHVQ1xRbRKo24LUdWdXnEWseNOLICIuz3gd10bvwcFjAOnGV7UFs6zbDFv86ij9SjVhxIACQPcKFKl/8HRwtxMmgOWEbfOVBEHi1goZZjGkgKKKRqEBbccHDFdqJdJchY38V4WxvBcYp0kmLiVeVtsBtYMQ4On4CNxxziCBW4CpxAZM9JB4QJxAWAogNOlyUpCv3WRBQ55gSJLNxn8JfKJ5HDtC31yyCJxNkS7xFLoj/HnNLOwdgXBioiOHEQLykP9MbirfBR9Dw6xYXc0hVUTULbm83DvLuHOq5xYL/fl9T04ZKLKLS2uLp3i1VtwldeIb2y2dZ+BvgdHQhRVymcWlDTR/g8OBnbzNryfm23dZ6DvwdGUuYJiFysKi0I3grb3thu2rvvEbJ4Aad7vk5AnRkKIxMJcmRwJYhm40d8+HNh79m3BZ0E6TamFc6xlYb1ODEYeU1kccmjJZkQmycR0ExKQAS65uBP5HGR48Mgo8MZbtQh/hDuzemhspkG3tP+N9vcS/ub+vpS/u3/B6s099rUTpPtla5YfweysgQPP/BIeABLUT7Bu3AGFz0J+BqkwasKG3J4R9mayZGYm2JhyqrWP0SGv5LZhwSGP5T+4vmA3Dbfs48em7dhkxYZK261FoAxo8J90QBRY96LKQdbmFuImavKH02KF943UQsRXy00jvnJ3vH/9iv6zYcExQO5nHc/om7ZFdvOOMbv/WNEePp8nXRCPKT4RJebI332BrSM7hJklvqBgmthHiSgqsVIXLWl4jGM8OvaKxoVf/IYFR6tFnmaeVY9qMYpect+Bkr19X81mKyMOjkjiRQ40cQq4RAOx4uhYRvPExopZ4jb6iuel2Enqhl9SRJYd/8p6s2HBkUNsxBHDF0EbLStD/AIiYudQHixI2yAA1k7pE9MAIM41lqSKACO4xATDEn4vd3cGIHmMxr95ZQGh09WuGzi0V6SoxQcFGoj+MCCMTbCLXL1O43jxou581AufZmSFqOkcS3kc2TBHmKvieZ6hUCPRouOUENLMWQvDBH5ieTdk+IzP/ThYRgwwBBf1G5EQlB7J0zq1RtSwPMpvQ7oOCrFEG/nSxH44N3PWVo10ejFAkmAJAoaMnzfoRHmsrAaxojwZ9uvV1g0cBTYbofsz7tDyhLIThdSjokXOw3txOUvgWNFVvkGeqPRQzTGHyE2iLQytbFPpxACUL/mc7FGelKIjdL38TTZREyVZRM4psAcaarnIitorAzeLmC+BVepPhu8XSXYuo4QrFyVgEeiaFCxcz7Yu4JAvIWAfSaWArA+aNur8O2M1zpZVRnaHttoEXE+369CPdAci+3hTAQZmao7z5wBGxvCXyGxVQhATHJIWWIdA6zIBnca14rMIAuelMysVQBxBnIS0hKRZ941RzaIIHwAALa+MldmFpcjwYr1mw5kSnwRkxwfGUli31vO5aWeLN4oNQut5K/B4tp7Y96YX7enFGTs1M97xYtq/6/hlhw+7gakWnmF1sarIxtpCcs91Q1vsutFBe+22wLawImM2R9ZzLTYzBVZYBEFlcbeXv+WRuxXkbky6QNiokQVvdro6bQ/MH7FnTx2346eftzqOPVllo+Vhu2nHfnvjzuts78AEqQtwmrquAeis46ap3oED7pCqeOlEB62anWxk7f4jc/a9M+RNYFFELbk65zpT4mIh2/mI5Z8CgI4tHoDtssr4/gzR26ersxZOhbbzVMXetX2XvW1rEfM1QNaTQFTu3eV3HMslPmwVNf4EAsc216rap5560L7+/KO2sDADgOEm2jTFnCQ1OB25TY+dfdI+/9iA3bn3tXbvjW+yfYAkIYloPXlfb2ZnBTA0J88tDtl/e/ywHW+WrJDdQWLNotkA2VjNzqe8GFiXmNMLX7mWduFt+1WmQCIP1odS9rKsrATlQ6vsdLzN/vczR+wpG7MP7t5qIyQaNzlWm9euRMugbwyQPHSscdb+6EeftUOnnrZSCWBjdSmxCcykVrgWDYOU57fK/P314W/ZI+eetQ/d+Ut25+D+dR36mnkqehFXAY+sB+SGo2RhTj41b/Yfno7sZJWsKxSNKJojJoKXkl1pcj51eqz6KkXUDo+4ma448gDJBMcPQrqeFLyY1VnMbbNvHEnsw4/PYdOg/8SMDent8RhRwzvUlPQuX8RjOfSofHQYhT8U25FVdCwzY//u2//Hjp56Bh8L+gbbG6QPBXLnY8nI+HbtGrd+ixTF1myD1IW8nW+cs//1rU/YEUSox4IQ20y7VxPQNtFGj8a/ZnBIk45Jy5bEKDDVC5XQPvHseZufnsI6ISCGqSX9wINdPjtc75VoBURJTZMb2tPT8/aFU3VMbOV8MhhEUIw3zXEOPbrpM5czbNel6J/U4xR7EoecYxax+7Hvfcmmzp+1kN10GTihRGG3FkB0T1yWX4bjzpNH+9+//ml7vo7MYQGQh52qH4A83yMrZs3gMKyBhOHosrRd6Pvnq/bIGVYrK0OyX03p+gKHgmFXqkk+ZwBqUq9YPTtmXzw6a+egUpt47iDjIi5Bn8sauubBz7H0a81TzDw8ef6Y/eDkTyw/VKKmCJuz3O7ufgroz+8kfJfMWTy7h6Z+at878RS78mK3zrR5it0UYlM9aWunFpqzFkWOVTmLDfmN6QVY+ahzDM30xRPTkxFfZidZxF4sEYMyGkQ5m67n7NtnKs7eXbhf1G8vxywuJOEgh4sDT042CPyNo48AUvbzYnDo+1g1JWSydGnpzj6hl/8Vtmay7TLD4nvgmYdtqrXAr5hr9aFgY4/Q0X00XQa58uMIYeKdBDU7h3PhJMZIHmdORJ0K7SPRhcuN7aJFg79CTRMZsTM/DAfYqLRoWZLJHvwpfg8tZU2sZn2p9VKsSFSIYyZSzngtYCxQGuLx80dQPHFuzVMOQk4tjcJR1B7F8mc2PEBziScOwpKRmz+HT+fEwmk7uThpBb5rIVKydEK++/IfX+a7NYNDHkjVWlrMJzZNPkVcLVqrddbD5R7bYOVoL4cmRhuPrlSrs5WhwPbJ+jwu53KM6/m8nasPepBOq1bE05TKOEiXem9GKi7kItb7hmsgYmfmZm0umieTHidXiQoBFe2TwapC9HVrCgZq07bvqMNB5oVlsMpi5v3cwqw799D3062YUmh70NZMrQiLQEELVDqrLNaQf4pWDKQrhQE6i9aMc3HKz7pSTWuz2Ri13CBrt7lAFtlWq7Qm7Xi1Zi1tdsJphoea1QyQ2bUv7qGddM5aHNj67BKj51AthkhVgECXDs24mIBQqkgF56pzTJ5vnlx43iLtuMcCSdj7GxYKDgztwuvW5Nl1tYRj3KvKMP0kiJiFZsVNYHGpGLO3wPl60dYMDoWC5INWlCIPYpUQHF1qU2kvRn0ZfSRuqmKdaJLZ4JQQbAvRl+SLQg2AtQNenhOIGKDVefIPe2S16kVYcZdYNca6NfoRh8wV2e7mmEKE8N4FFmJAMZL2er4cDircLIMO4xI3SdS3f5NhXw/zL8W/RyGXtYMDxYjUChxOeRuCbYcqiJJfT49/N+pc+nP5VjyJR/U1WL8xGn4JUTOkfbDIRq16gSOkfkdJcRjAopUvzidWLsKkROh8HtUHS0WTQEG0twAAEVWlLLvxVCYCXOVc5UK8XobV5npQGx08672LK3b/D1HiSv4O7brTGBN8PL1oawZHoARd1gd70SjQRpget3TXoFgvRny5fUA8cQgRPVGUOKnZHnwzQ+xnjeEqYMBbERFzYHS3NWuE5VyR1HdcH9zjknKF34tYbrZzvIjURGTt37ITDiVlIO1fAJSBd3mtDU864RwaV0g+xER2iI1ejJF+tXnbMXh5J1j2qzWDQxuQc/JjAI8ROOqBIcLyaON915gxRWkTOAboQOFv2d3bx7XxPdWFWO2ajMGwaD9/7a18Dieh4qAA4gVcOM4P6HJhrnT7aibiy28iOdzgGnfsvAE+Rc86jx7iSBBytQ0ceB8CoJq4koC4e3gncZZxT1qSXievnv71oq0ZHMqLkLLEtNtwKbBbdk6wQrtr3b0Y9GX1gVvaq/9I+DOBRZTOO7bDOkQwn3loL/WJxxv3vsrGtm3z1alziYW3sMhUbrJr04q9SPxIxdm1b5/dPLGHPmWxaPuN1HZOqLSBVTdxo3Qs0j/EnaUD3br/JhvPDyFW+Eyfo+d4+YhV9//iH6wZHHkG08zlrcTIwlbFbtuRsVvzyvhiGvDpKgAWaG8rj3SLqyZm/R7iDgECXg9mzwnsqx9PbkCiUba1xS2Sd167zcYJ3XMAuecQHdmdOF9ObAv5Er/+ql/Aj4AjegCVm2K2OYDRXCSGxIyJMCIUL/y1PsMWIk2RMALWSgvzspQdsH9023vZUwMAOVqeyzysgxQXzqPKAPQgYuqfez55rfcCKg8BwPUMfS8gCHi6JHEduI82eu3avtv+3oGfx+qh5qq0UP2OPBUlBPWirbmXWJVY1QsXk8FO38UYf/X2fTYxXOJCzltE5DPJjVgTczdbRmYqI3w9HxBW0QU9Au2GinMWkVATsykqqhcwW6ftlusiu2cC0IpAXdodOw7a226+yyozi1gg+G7m2cg9ov4AtggI0URAfy15j5+ijlmfHyxZjvjSL912j72GQJ8fz2FyCCYAVqIlwFKSN1OWhcec+L1yXNVX6GOCw2Apud/DP2OsJPowbc4thI9dY7vt9970a0gSvoMtuYLqiNIFaXxrb23r6rJ7UlKusKEBBxRWydUX7PpS2X735pJ99Kkx+/Fpqn3iQBgqFK1WJ3VQAYB1bGLhqm2u2lwxfoQAzT1Ez2hNwlEGm3bPjlH74LXDuPcXrQJnGHAKv3hAQ6z83zj4Fstjzfz1D79CthYgo2BcKA4DkaTYiggZt364fspDxbjmEwrlfuCO++xvXXMrhMN/Qv86FgM/NZf5FZDwOdPciah6Bh7MnyoMwSHoJ6PdewIM36llOX9jzius2w3De+0Dt77TrivucF8Mv9TaTJuDjJcvfND+YvXPawZHQjhW86Tsv1wOsw2JpzLxe8ol+9BrR+z/DZ6375+ZtWqLiYpw1gSUEF7H1iI0n4G1utZeJX8ED5TyZnaP5+2evVvtrok8+gZDaZFnojy9bo3rGcMK+ND1b7drxnbap3/4RavMzlgFRVMBMOVdaIFK35KML2UGbPfgDnv/m99lrxvahzFMGiLHaUZ0nJTEQKwfMSy3uRRTz6uVKAMUEicOFHxELk4EcukmS59HcLDhLeP2c7tebe+DK+3IbyHlksFDwR7goOMsrLmCMSJ+SdlyMehAUZaEO5I4pfz8R5DVP5o06nkVbXpRQaL1a60cugVLW5vzxRW2DQ7Y9qGsvWE0sO1Usw7JPckHVArSuOUPWFqZK0eUUCsswj8RqvYYBDwUT9rjJw/bM1MnbWZhzuaJz4iIw6VBT+N71cQ+u2v8gE3khqk+BGHpsIAM8SK1nGaRwv1lomzSHR6Zed7+50N/ZXlqjUip9HpmiBj5VVzsQG53ZvGs7PICHtTrxvfYraPX2I0T+7kG+ta4AGUCSDtyjiWrZuV1reb9msGhtJhQNbRkRiHnpVV5+hrlo+tijdxmICf9FG2qkZ3l9hfrW5UnS/AvlqeQuQsxP4rSA0BCSwqzykUxlqS4SJBKnhkSdTXHHRuwZotCDEBkxTi1eaFrq3AtNUV4+VdC+StJzsAjYsSn8kKy/l7cRRwDEcG5q6yioj5H/p7N0jciVqWgZDxpCBI1Aqo70KRH8JmcWuKAcpqVKVPVRO9Qbixsh4uj6gDiJ4Sz6GjnNvzGRRFdXeLCdNRLamsGR7ezcOcT2QCuYYu1SBQK6ZHmsUNLd50R4iCYlEPOa+uIOHfKji+sDWn3app0vUo9LPhadCxxhjrWRRH2HYgls0ojZErCilTScQZvrtOAz1T9T31xpPe38k/MvVgoGYMzjFEL43CkJp8V4kGujCxPrB9lc0kqyCWfy8oqeemtbT6v/IWPRsMUupeamFsjMwcQhh2ogYcCYH0kbxuW0QvAaP+gR8/rBg4R1f1NikfgIZRGje4mRti+5JQsS3MgInsZa75lUM5+vWyjzEZmR//U2uAISI3TbjVp9wlEFzuus5JKVPRj/xLiLF19fISfgSislj79uJucsamElO9hEcPr0MAVw1ZBbVY5Fo+0UI9lwBlk8mq9+pWAdkVLHckd+gGiq2riPOlO/3RgOoeU/ZCEoCw6ks6c+MYwjUdsMM20W9VJXuLB6wYOzVwDnqmCK4o2uldQppuotdTaBNdzBhkvFg4FfQLkgpjl4oeQ053AUcGHIXOw5Eowq4fV6/0BQp9NzSqnco8izzHKqSwOfS3vorK7BVamuD2c5c8x92wRALA4wKc/MoioDHmnzg6llPo/dShC6oSraF1O6yfygXMAXercYrsJA4+ppiiFI1DZQn2dzDP+QZ+fVZz5JR/Kla5PU75miFmQQTsP4B5S8CqVihXnaz6NXjPjolPLwk2nV7fKAkRo4jE3RwlKEJTjxFq9LdFAt7YosGpa8xVbLCIAsFCM3NAqdUQTKXlo++IdipIWBrn3SlnbB9nrIXkNMRNkd4RvoouUgyg4kxBPvgcrmGLHJcHEmgrtz+MtXUSULGCaknqI7Jf6GSWdS1FdJB2WLiB9upQoSLmDwMcVoH9In8uGWz24qU9lqmfgZCG3D3HH3bKee/dm3ThHlXToEALZ2Vmb/fajNvPNh8yOn8KpNOX6h7x+S3T2q/EdavDyUjZvMyhvA3CF/b/1azb2gfemnGMJHe5B5BcJ9T0bUtAgYPST4zZ1//ds4bFDVj9JrkSN2I6cTAAj2LbVBvfttuI7fs62336LRTiy4jreTLy6rot0mUt5c1XzVNxB19E8/12bPv01CyaPWhNlMkYZ0f5fpQIoIprtkqYgcdepec5ohy8EpvQaJQLT6swK3DXG99voxButOPE2Mvn3ogPBWjPTHDux8TiH5iT+wRE78sd/YZNPPWYjsP9FbsqXlWOI1iZymyNoAvKwzyy7v3Kw0BbbAqVMdmt+cwr0i6Mf+7wt/Pnn2Cs1bTMoslmoGmBRlEi9IyxqtdnzVjtyyMrfgLhvudP2/86vWrhn3Op4IPM6BuJ3ak0mP7QyWytO29lDH7P5w1+2QTK95+G1Yrd6yFkqLUqPJqUwV9P8px1+4AuGSdG/SKDUqqEN4mM5efzbFmz/rG2/4UM2MP4OPLIj5rsmO/TTi4/WLFaImLhyl8hTyHUsEHSTx8++8pA9/R//xIqLaNkqTc1oC6j9ciCptUHhb/QeVlkHHPLrcFcT9rvCEVj92vqn/MiYjKnGQJad+4FNYVKOEMM4+ceftslPfIJbrYzYHEAaQ4Q5iTifcuLVPFWR50ZcseirX7JDjz1hN/6Pf2uZneMKT2B86wowfSFC6LKNYvlhyWukt6Ypwv+Df2/JzA8wO3GhExPJ+68AhneuPzoPorNH8QyHQjp0B4jOoLaI6Vwg/7V58phNT/6BtW46a5lXAXSfdzgl154jRCDNS481E5Zzdl+aPqSf/cfVR2R8ndGo/lYRotrXHrWH/+AjNj8/bQsQSuszD+utQfzVNgWqJIBkohak0GKZKMj0/J99wY5+9guWGRjlM8QEIml+maBafqaIc0dwr/qpY/bo7/9Xax05mV48YPN/sqWhDJ6RlNDVls0d+k+2MPtjNoCjT0g54TxXrJFPogL7ZXJOM4uRzR76pGUPfxqHniwqEosAtM+ulO0eDXLN4MCNg+af6vxNBq9Jf+LDf2oTczM2iP5Qg8ULxVIO5S5ebUsIZ4oksnrcXqWz2jd+bGf/4pPu5xmFYHnJZL52V3WXE6iGaRZzsFwaZlKP2NRHPw9YMVPlmHIrl2gqXE2ejxAQzh/7lDVO/NAdacoaC3XPWvIzrlQL4BxyEukGh7l8jU3gMzb5+EesOfOEWzRe9E608H8c24O2emqtPClEawBVhSl0l4H5r/7Qqs8dRbxgKsItBlmxyi2t8Fr7Q1ffkL30P8x5JIoqKJvHP/IJdAuUV7jFFP3OoWeMwfJrCtF3aQJoHrCeIxm3wvGVB75tzcMnQC0d+1ziLgcaOkdcOWILz/5fLBIsHm4PluMCc+zxbRR7M+ldhnjJj2X15XG6kX+EpxlOgTJe405Ss8e/zOJLLcAIAAscyq7pRVszOFR0RBwXLFiMKfn81x+0YWIG0h10Z+Y83KKBPsEatVGIs9omYsmBphiO9mUs/vApqzzzJHdu4k4HAiBia5DUvgW5p5mYro3JXeAhkaR9qbNsJ1z4zANMpMwSlyj+05D3s6cetIR0f4EyogxChryUBmGAPPterlSLlRuDV1Y3m6w3Ue7RoYoE36qn/sbihVMMC2ATJkgl95rJ6pe55l5q4ggQbgbZl51mq+HZc2jxEQVb0LQZMKoScQ2sEAiZucTK7jbpuli/zRaZW00sjOi7T7oYiQGdqhuPIFYWAJ+AqLszdmuKtxTFuThOVlED1E196/tYvBIt+pXWHF+35jFZH02VVdzuZYGyXLfZXNVGK1dOrLRYWDFiJVGppxBgxEPEXohpVU6zFwdwICLdZ3tBU+42FS/58zWDgx0qBIAgEn7+mfPTFK0XjwgJTlF1RuyEJoeP2Dqb77s2WSpqfsdGjpcHVBFJ5X/kUbLQdT3drnHqnAe98gBCPoEqBNROXZVSUMyjW2NasUIAz5LeUyQq1jh10hrHiRIXcZyhUZOOhIlbt9LkY/gwiC0zpopyQthwMoxuMlfo3n+38/bqc+k8cnjFcL0ELhJT5ptlCWsjgalxVI5TrpDbt8Nd+iZNUJaE7pumtP9MjdttsboXUEJX21T4Xr6PLCukBTAGeFb2ti5ZDwWq9L32gvgNfld7gi7HN7khDwj0h0gfxLjZL4PDdel+3T9GI/M7VWmlwFuZKvQRPfegrZlzSINT7ERBMNJ+3GyNWPGrbT4Q0K8d6OLz/E/3frQ70mcCicxZxEmvWoYaW0rCUfklgVAbnXTujdLw+7kfSZyOXbip5XIJDrqa61ozOHwemU3oamGZVEBGK2fXqpuIDzAa3PBXcZMaHZb37fJuPCUPcSD/mR7uZFv1CTr/QAqzRi83t/tsKE8VF9Y3W63zSC7vU2kaYVZ3kZCQEQcXxHuD7jWDQ6BwdiyAbB225tYJspRWz9ZkRqYcQ/493MVjWy08uMv79kt14omAgMP/8qIXDV0ClcYtLuV8WH7Cijtu6UXPL0sfLfJI8sX9WIRS/QkOSq1yDW/tp+8NOKCYcilz27ZY+cBeG15SRFczPHENIV7mqfSLHXv3WWP7kL92Pi/sqEP+dM/eWs0Z02MjsQzvE4gjrqTwDe953eo7ukK/yA9SC6V8LYsI25BbWbre4VBf+4DWDA55GD3ZBadAPJC3Xe/7BRxgKJPwN2n70hFYmwyaXfj4IqoQQCkravKrtvMpilgf8isU+F3CDYUz976VKpDcqx4kpKn3KdeQhSLLZdVNnI1/+qmUaFlQbvrxHGgTFl9EiLM8Cl52+71wj9cQjkfvRznFeETs4E9h7J4pjmyLlDIoryW/C8jnZFg9ecgVJy6aYlbApW89lMdBmkFAPVKlEpAAgyK6aMXrf4+0hiY8g1iRhkMwMaNcyB60NYPD0/GYYAIrflGjt95gW+59F9V2uUQIUmLClegjEAxxUcQ58TOIMKk4EqE8fA/HKPKo1rngN99u2+5+nedk9OAaL6uL0YMfsGaJOqqAAojigKvZeVkCKoKhXEeqA6kWmridNkt5vXWua63PWTy9ngnmjCyFshStHJlviwQXG6O4+bGo4hYVEfe81bZsO0D4nrgKJOCnrpORNXVZ17zyR2sGh9aL7tYYsMO+wAhrFKbf+zvvt+w73k7JC0zT4qBxy3iSZvBXAJi8knJQAhsAp4FZKgBp87Lc7QF3gx56PWH1f/P3rUk/Lb6/Ui0Zf5PtvvEfUgIUYpA3kWsVKBgrZx7RUQEZuywHWORTEN+Qk68nD9hnDrahFKc8i05iFt+o1eEcJeZtBEdcXsfs3m3lO3+X/O1tcEJ5etiXwyv+0ABvD9plmBXLz6oNOO47Fx1hryUKu1eGErvxX33ADsMpFr90v02UR20Swquwi4q5y1ehOIcSifW6BmhCWHjhzW+1vf/5nxL8jGwAR8950tbHe6RcLR/1S3iXrVhuz/vt2uwWO/bkh8mrOYWHdMjOF2adrYu1p3dngGkC8IxiND1oHs+hr8D7g9ziICy6EHFRpALhIvM3tP8eG731H1s1x0ZwvncBDWhdTGoYDpC1D2bN4FA2hJc2FA8i9qGUQCG+saVk1wOQqbtfb8c/9UUbOPJT2EcVTKdKpzyhVR7BAPs+tm63Hb/4Nht6z902W8raGHtBpJSOsTJTPrn2C11tD0UmuJkny2v7XbavuMfmf/o5PMBfsVJ1lM1GBLhw9KWKMfEdCCT/SE+aUhjbNjtUdp2OWatSqioYvdnG9/2KFXfeTuBtiCK33LqdcFXK/pe4hYDRL+BQqYLAk3JAODmZOYgaAhAVnq+NhTbxnrts7PbXWOPslJ3/yWHLPHXc5mZmLD9Qsi0H99vAaw9Y5hrqeY+PeDxjDE7RhJPkSOTVnQLknr8STbdI1+bnRJvCt+63kdF/YcXoHstNnqbI2wmrV06A26U7Q8Ax85fIWlvN+FuIYm0GV82QEDO1kBviecB2jL/ZmqPXIb5LhBEUYCtYBWCUtVcZhCgwiQRypEjl74U5u2bO4aglvvGCCgTX8P2kgIRizT4vwcSwFXjsfvW1/n6n/+VipMguNXGbdtP+VDXyqvmbrgu9lwbPj3q2MtRnSK10CwjjszpLTdRlAYIQgJiWx5CTUR3meYHF7G0W7SENgTERxfDRYVcwMB76HWCRmh0G9KMsdYlabb6hXXyteu+75fViRbtoGlZ8Qwio/WWYZq6wgY/GKDUlF1HycoAh0bhyjBd1+aKx9OwDnVQnv7itHMjF372cr1uYsQXqoOcQ3kGWZCVXLCGeb3N78UhyWGVcjGe9CRHKDhdg3YohG1yMTlca0VfCXSvDBPB1bMvno33Iimlqf/wiwr3wxTq+WDdwrATEpcBwqe/W8dq964RQfIDpp3vTJvgHmuyjlQWirQ0dm8KftHSlugro8Yw4nMRaYS2z4QioOCfxlEPnL8JP+rt2nyvftz9fuYjan1+J53UDhy5GE/CzLrbbJL1ck5GQRZWqNWS8xyQWS4o1SfQppEx75ThCD/pJmOja5M1lCsFCy4b5PQXzeBWyGUsbj0IK13im2cpOeL9y3077kHTPcfvdheefNY8Xjuzdq3UFh4bZJv7Ki2t/3rtLubyeXFuCuHhdIDSeWdIQF5/5866gbmCVqAiL3P1ZPLn5ArU+yAovjrwBn8M16Ia6MRicBxAFKkwny6ND65fr7zC0Fz5ad3C8cKaLXshp1C9NVolWfkx1QRE7XjxqZ5/9S0CiRMcXtxBrQvuAdQmJZAuhAimFwcQWm9h3nw3seS9VhbmJMe7tnIsSsaILi8Tf8GflYvlZn7e/fzmfXzZw9OtK8bxL3QsmHmG9Q3a2IRQwC5WG2Kl5PVOOVEshrjgGgfMzCzZ5+o9s7rlP2vZb/8RapW1ghhsQkXvqxyFy3NxkxhPVJ2MPcD+1TvTpPAP9NOoNMpYaOSwZCtxWnz9jzz/y2yTV/og8VTYhce/bmOCk8OR4ACm92XK0/hOzCY4ezXGebQsV7v2qWmIBN+87d/gP2c7A/eWY4Qj3t1we4hhSXXnRo7Oubzeb4OjR/AaLZN9TTG4e6ycTDFrtzDM2/+ifYb3g6+Ac2veqf6q/IR1nI7RNcPSKSmwQl8ufndeWDJApXi1Z9cT9VAB8xvMrAiKpSlxwXGyQWd8gw+wVBdevn3nugV7AbB1sUEWwQjCynNjs3BmbnTyEN1UBR+kagMMDIOs3jl723Pfg0JZKeDFZZERzVUEvjWGveg4SzMoWj4C6GkqArhFSlammnHmyS0iewbLAL6ESlCpTJVNz2UMmLI9ubYgkIO7cYjUs25wy2akCkCdIZice9P0yGfaLNjFXsp6I072fbv1fic/7HhxuB0LImKx0NdxPEFfrcHVNv9BOvAyboVtyUBH5hfqAQftMAQ1pVCJZoJuYs4Eo5f+rO0enoxvU9EiojequEVktav1YGz4d2bK/fQ8Od5iJa8BAcA6QlaWMqNW7Z1QNQOmI4h7KMFM2lzLS5BmNVFuD6ssyIkIKmCqjytf2xQtcJuhlGBkBOkh6owDdTUFjEE6wWDZA63tw+OqGqCoHJV9Bkxph2tuy2ibx5Buv+aForgtXauLA+DCpAOmKzpBDQb4BAKIg20XASB1El4EMzhEqv1McQ9lcvAd5tP6f9g0xSmVoasn6dJJMVN6xlbTC1YNDm7lzcAoRWlsvVQglP7HNstsm0gK2mg3pM9kRy1JbPDU89WHa+AkjWT1AsgM7yapXEE89LmHjSqU+Ll3LS33qewj7vVKhjNhxQinKbfuuQT9YvVgJtAFZSiW6huqcymo4cPPNlujujBIjAEMKaJgbtcGJG9L500kvbqvHhg2O7uPWYIADcSgnmF9HykMu7rkvX/c9OGKqBnkhegijmqzlt7/Bmruv9Yx3FZ5XgrIyzpTJLq7gPkheKwFLITFFR/0i4RSKi0SAokwmVZYYSvE33s0v2cQEsVSXNCFXI6KsQfE1/xyCIl60B6RA1WL101R4XoF6BoKIaG9B0Gv9I3nM9aKA+9EHBGdqjKQ8VLbM/l9nawYKqScAo/mA616lm643ovoeHKr9AVllZfqsJuNlu+k3f9mGZF3ACbQvZhbCFyFkntzKIgRUXTKlFKqsgyug/FT7b5twBxGywvPg7W+08FW7neBtk1UbllTVMIQzjVz/HvpHcSWheJZick3uQqWRtMtS61iYAU1eT7LPKX+9QAXCBnttg5kBL942eN0HAawGrgP9YP1gw7S+Bwczr/+yBL01eD367jts+Bff5YnIFe7j4hyDspLzEMBrlEEQxTI8nqHfApoF3S+ekHwB8HBvCtvz278MRxBvgbwviA/pJATQAF7pwH3U/LzeKtG0DQGMmN+HTfbvLkVrZRZ7wo4DimnkBsaKsxZIDwwG6ugzb7D8fmqoiiu5wnsBHPxkQ7S+B4fYvVZfVgiBhRfZ06Jtlzv/ya/YjbfdRSnLBcLsORspDrEvhk1VzHwNwsmXkYWQqkeqwnXZAlnb7J3ZRUr/7n/9IQtfQ2IOdbV0Y2ER/IJFgniRqCjvs623/L41JrZTC3TRhsj4ypWmXGcVExBDcKbg4NO9Zmo22CyhLAPR3Qdt283/ko1nEnWCa3uaNwgqlqC7bhWMe7k0VFNM3tGE8j0KbAY8a89tcGrSzlEVcO7+r3E37BkXKRXAIJOxwLOqG1bZ8S8OMoxJWbjlFtv5z95vxVuvJ4UPPQGOUZI38+ImDPJeWCRx0OKps3bm0IetcvYh8krn0D0o9Ugy8hIDASxy0KGrZDlPZtzGD9xpW679LcuM7HZvxlI0ZQl8F5+o/1/3PThcH+A2G1qB8/DtIYkZFMcMesACdzUosbl4/smjNvlX37Tadx625uR5CqpRK4u5b8LOC8NjtnvfAQvve6uV7nm9lYbZB4Kru0r5yBL37ZBLo1NrRTNkjo/aIrdBxT9mzVNfsfDZ79vcWdzhEYnImNPiAzm4knajlXfeZrmD77Ng7GZupUqSMjveLT/NMRun1sfKeeh7cKwccPt9k22BEgXthNy04k9i1SeO2eKZScpF1m14YsyKe7kPGntmVGC/U0vFyYu/uaCHLP8uqR+xRmWSklSTLlfyA1upoDwGEK5ddmC3fpcd1OdvNiw4IvkrAEebCG2LI4KrqJC9m4voEzXMV1UaHHpB7i+nSPv3yz+9WEld/o3EiGsQcpiJd6DnSGxdvB2yW5/Le+r/dxsWHALDSiL4aodS7bs2+/RzHP/xL/RGGWxSXR0VFvClukpEEE3Z6FluCaa2ckz+4Qb9s3pXY59fqN/iAm1Rq1lw8LtB+yrvzaVSaAK2Au+Acah/v099u4jLRrFRXyINNyznuNT1qRSl4qoYqB4JlQncRapcqpvO34kNpf/9e+dH+nOVAUMXd9WBQ95U6QSoGmmDaAp5CSg9aQIGXalYipq73XSuHnXvnfbJn6sOHH0yr1fFMFzxviquZPMiej4Dm+Do+ZRePR1uguPqoWXPr2QTHD2f0qunw01wXD207PmVbIKj51N69XS4CY6rh5Y9v5JNcPR8Sq+eDjfBcfXQsudXsgmOnk/p1dPhJjiuHlr2/Eo2wdHzKb16OtwEx9VDy55fyf8HgyeSbYsTFy8AAAAASUVORK5CYII=;" vertex="1" parent="1">
                    <mxGeometry x="300" y="190" width="75" height="70" as="geometry"/>
                </mxCell>
                <mxCell id="9" value="" style="shape=image;verticalLabelPosition=bottom;labelBackgroundColor=default;verticalAlign=top;aspect=fixed;imageAspect=0;image=data:image/png,iVBORw0KGgoAAAANSUhEUgAAAMQAAABICAYAAACp1FrIAAABWmlDQ1BJQ0MgUHJvZmlsZQAAKJFtkMFLAkEYxd+WoYSHCKFLoRAEwSalXiI6mIFFHra1oLqt46aB2ji7EUEEQccO/QPeOvYHVKe8dykjCIIOXboHEpRM32ilVgMf34/Hm5nHA3p8FucFD4BiyRVmci60tr4R8r7AhyACiGLcYg6PG0aKLPje3ad+D03t2oR6C8/60OFsPljjo+mZ2+PHv/6u05+1HUb7gybMuHABTSc2dl2ueJ84ICgU8YniXItPFWdafN70rJgJ4mviAZa3ssTqbz3Toec6uFjYYV8ZVHq/XVpN0x6kGUYKSYSwgHmYtGNYon7+98ea/gS2wbEHgS3kkIdLt+KkcBRgEy+iBIYwdOIIJmliquff/bW1gztg+ongqq0t3wAXRxT9rK2NTVGUClCtcktYP61qdY+zGY202C+AvjcpX0cA7yXQEFK+V6RsUIe9D/RF+RMwG2LTUMD3uwAAAFZlWElmTU0AKgAAAAgAAYdpAAQAAAABAAAAGgAAAAAAA5KGAAcAAAASAAAARKACAAQAAAABAAAAxKADAAQAAAABAAAASAAAAABBU0NJSQAAAFNjcmVlbnNob3QCsaSkAAAB1WlUWHRYTUw6Y29tLmFkb2JlLnhtcAAAAAAAPHg6eG1wbWV0YSB4bWxuczp4PSJhZG9iZTpuczptZXRhLyIgeDp4bXB0az0iWE1QIENvcmUgNi4wLjAiPgogICA8cmRmOlJERiB4bWxuczpyZGY9Imh0dHA6Ly93d3cudzMub3JnLzE5OTkvMDIvMjItcmRmLXN5bnRheC1ucyMiPgogICAgICA8cmRmOkRlc2NyaXB0aW9uIHJkZjphYm91dD0iIgogICAgICAgICAgICB4bWxuczpleGlmPSJodHRwOi8vbnMuYWRvYmUuY29tL2V4aWYvMS4wLyI+CiAgICAgICAgIDxleGlmOlBpeGVsWURpbWVuc2lvbj43MjwvZXhpZjpQaXhlbFlEaW1lbnNpb24+CiAgICAgICAgIDxleGlmOlBpeGVsWERpbWVuc2lvbj4xOTY8L2V4aWY6UGl4ZWxYRGltZW5zaW9uPgogICAgICAgICA8ZXhpZjpVc2VyQ29tbWVudD5TY3JlZW5zaG90PC9leGlmOlVzZXJDb21tZW50PgogICAgICA8L3JkZjpEZXNjcmlwdGlvbj4KICAgPC9yZGY6UkRGPgo8L3g6eG1wbWV0YT4Ki3gtQAAAKDFJREFUeAHtnQmc5UV178+9t7tnumcfmhmWAQVlECQYRSOKgAKRp3kYBVx5qKCo+IxGMfj0Q2J84elHJW4RJRgXXiSK4AIEFHgCsrngApr4URFRM4ODhBmGWbv7Lu/3Pedf9/7v1svtnmGc3OqpW/Wv5dSpU+fUObX8/1OoyVnf9SnQp4BToNinQ58CfQo0KNAXiAYt+rE+BawvEH0m6FMgR4G+QOSI0Y/2KbDLCMTkK3tyq/3R6lNgh1PgD0QgoENhhxOj30CfAgOzJwGzNz4xbAobkBsbu1lZFSm0lC/U0ACeEWEepINqh9tooR/rU2BuKNCzQASTi2sLMDKKpip2bjZrajZo9XKIQAEur0RaIRi8YANWVXJNMCIJOAhGTb+UB3ZfGESEvtsJFOhZIC65bo2tWbNVKA5ljJwxeKFkgwOD4uGCFYtjViwVFcLs5FcVF+sXS9mz2cBg2YaGhmxYeYuW1GzvZSM2unSBLVpYtOF5EinJQ7s4JMEjpz13J9Ct38RuSoGeBWJ8e80e2Dzs7FgrDDqjowFKzPRFtIHm9tI8U9SZH4Eokl9SutJKCImYvVgckqds0UqPmP3i/oqeN3r9eYM1WzJkdviBi+3AvQdsaJ4EoQqAousOxqQvDrspZz5K3epZIKqyhTB1giFrVvMHGU1KKPp6QGaQHqpiXtg3NERrLzuxMwaT6iirUjHbOFayW3++2b73y7LtNTpiT1w1bPsuT+ZVtnrpBKa1qf5znwLToEDvAiEmrJo0QFU2f7HqawDsfiz/eCoqFGsrv1bKcywrAwRHuoTyqAmVbLjI5xkhqmmNUpQGmqgN2Nr1Vbt//SY7YLRkj9tvwPZaNuhLGImHygKn7+aaAqzi8qM31/B3NXg9c1G5UrZKtSItUbWqtENNIRqhVpNHM0iDoDW4O+gKA8q2uQ6kroFSMHiYXmiDbB2inKKEZM2G+XbbXdvtrnsmbFxCJTXUBrmfMDcU6DhscwN6l4TSs4ZwRofZnWISAAkBi2cEAaNngEmftUT254KisoQwfE2aI+YeJWqhDV8jAEz5vhvlMz7CgHDgVUw7UuQVamNWKA3ar35fsQ2bxu2oQxbb/HnUd520SxJ6LpFiEnpo/cN2wzdvsTVr19rjDzrIjj36GNtjyXw1owkKk3MmDTJxoclF/4mJsm3bstWY8Gry5dKQrdxz+czgzaTtXaxszwJR7wcawR9CG7j1I6auioPhb/IQGtcgCtEmJVbWk7m6ECA8YnTkRHURGNcfPMtrGW6btpfsph9vtacdNmyjC8oSNa3Cd2PHRHTJ579o57/3Q1YuZ8QRlYeHB+2jH/qg/enxz5pR75mXGKMbbr3F/v7DH7Vf37fO60+UK6J30Y44/DC74gufUtqMRGxGOOxKhXvuZbGimbqsWQVTSYMUGoA4BNaCG6+8CImHJ4/yOH6T94S2H/SLZn3BCa1RlpCpXTSKC41W3YpLX9j3/61sGx7Wdq/OOXZbJ2J990c/tfe89wIbE8NWRItqoSyLsWpbx8bsree+0zZs3q512/RoUNbkdOOtt9sxJ7zAznr9Ofazn/+HjUlDbB+b0IaGzGG1oSGW4yfGbLelbdaxngXCd5VEIxcAD5NQkBZMT+iCgBDwl0vnWXwcHnITb3OYQGgDBIDFtQTEhUGmlDBnbYEvyZc1m9193ybbNE6XxtsgzTahCfd8P1ritFPVtIunzly7z1/6L2JSaCfKiCY4J52SNm/eYp/+p8/U06dq+ytXXmNv+J9/ab9ZszaKgm4CLfg8umr23I4D5Dm700/PJhMagXEJAkJFohFCINbG8EMwkkKNHTYqAlKUZxLT0UMwDTwMLIXoBEjPeCMA4nMxf5hfRQ8RCnkXkijjvFEs2+baAvv3eyfsiNVDNjiFVaYmpuVuuf079rt1Dwh/BDqq5IU3GYyRA+Y1GxkZ1ppmnu05OmqrVq2yPZYvi35Mq8XuhSqykdY/tF70iXMYWnPCZXjx9Ktf/jKIx0MXR/Hfrlln73jX39iEK5PAu1E8g+xBDnijwG4b61kg4FjUapgusfj1BTEM7ZICzYKwTm4xMYzkppXqJmEh4gOchcCFyfzsAgGQQChQcpxNuJZwYSBPXlu6LhCeVraHt5YNM/igfWMtERj0Pn6fvuRSu/mW24Q4yAsrAoCKT0IY2hlGqFplImZvJoBV++5np73sRfbCF51ge698jA3QpwwlJgxoOJlLLTCB7LffKqvd/m01rocGIvXqRzzlCKEGTbs7zNjz3vM+LZyhdXKNGCk1bWBgKYWWS9imsrtv2HNPWTRrGaEZP8KKVEBFBKy4qSBW8S1YCIrpQLq0gvKrqoSH0KwxRHnPD/XP0GswMYuEma8XEBAXDBgfHwwUawmeERb4o6AlNgJStN+sn7Ct21hZzN65+eO4wmaBt6tGpYX2aw2lBWE0XU/hisqANhDWrbtfC9YL7TnPOdWO+9M/t+//+MdOi+liRz+8L6WKnf3G1+q6i3bb1NvkUj+XLd/D/sdpp7nFn/I6hWu1M/Wtm2/slOVp7Dg96fCD7M1vPstOf+XpDHJTX7tW3A0yetYQsC4zjdtCGh7+4GzpChcMK6CLY6jEw2JUiqqGF4PAPKuWGIb1AY7SAzC/Mz3P+tNzYvqkLQgp7PeilOnlKVuSsKiBoqTpl/dvsScdqL1YXKAR8Zn+1gQD+0/tgHPegZ9aDPhZHk15VBF6BT7uFJQF4D/W3m8vP+0NduRTD7OL/uECWzC8QDQJnLvjCSQ6Pc/233ul/fPFn7A3vfkce3jzVi2sSzYhuh5w4GPt4o9dYLLU5Nhc6O7uue83sldVsK7JG2UHi4P21a9dYoc/4SDviKMv/LJeNAruprGeBQJtwIzvpBLTQj20BdxQ1K6Hxz1VPyUKIyrK17+op6JikOQTyQWFIvLBYWiFYHy0Rpxusx2IScVi2rUG5w+qVELylEb5TeOLbbO2SBZin8zC0SXwgSUJcSmMp86/gX1zHn2FQOPjY/atb3/fjpa2+NxFH9FsfHhzwdanDJiopb+CHX3U0+yOW6+z73z/LtuwYYOt3GuFPflJT9TW6/S2nNf8dq3gtDv6dcarXmKHH7K6ngld/yu5ngUCIjkzQ1rnFlhaAyYC1mQysID28UcWmGGgrPMDQkAeQqM8FYr1AZoiSM8BH7O+awSVgdGxnz2NdJUL0yniLmqehoAgHNJSEpm1vzNbvSpY2dvvcWRBG1lLzp99xmZbWWcfuZNy8qABfQXHmmZwNExB26OkQZOC0tAc69dvtj8/9bV2yef+wY4Rk6unLmwZGVJzqhBCDYXDUCrYggUjdvyxz2yUmUFsgw71ECyfx1rqnfjc58oUFr19sMA3G7uWcjvjkZGrT2cQFtdGnEieq9/eBYIFpgjH2oCRhuGC8at+kzVOrtUhmTHcV2IABrychEDWVIH6mRnFJb7SQBpqNIwGwbdX4QUJh2CkHSfMoZKkI0wjyqkMQqLyEC+2YmEds/XbqrZ9wmz+UMDujWhgjqg3HLCL2tX68le/ZAuGBrTvXx82K2sxveY/19kPf/Aj++aNN9ratQ/a5k2bVR8IraMpwS1W7Myzzrarv3q5HXrw4xuN7MBYeRzhzPeo0diSpUt9LLvlU5JxZ7y7hQ1ocxiDdJ1RnsNGZLL3Ci322sWELJ71B4GSB2/MJmjO7ImgMBtVKzQHg2lWLQ5ImCo2UCBNc4E0RkH2K/XQDAPUUchM5b4wLkHTZUJgK40DOYRAxQQbmPrjWfmRpjYU2SKYwyTOytGjBhCeapLmg/ffy4YX6LqELh4mh+AeYgfY8UcfaW//yzfYxPiEXX7FVXbe375PnVJPqmLGzIEny6eJiYK95W3vtBuuuVytjCnXFwKpWFM4Ljp94IOftK1bt4oKOjjDHJUrlgu2/74r7Y1nneH9blQCW+FwzU32w+/d7Ux8909/7jSCjK3u7z/+KVu8eJENyCamxwsV/19/dZZoLtw1oHf920/si1dcK0HWPlRlSJMd4ywceNba5Zy3nGV7LFukmg16tbaRf66JF+67f51ddNHnvY3mPGnMiQ327r89z7exodeOdo2RnGFLfqFPwsB6QNRwLqzBmAlp5xrdjRFhi9IiVYWYPQOuglVF9j0LZuCgTRAU/vGeREnpJWmFQe2mYEQMah3AohxmI99NKjEDDI9DcIgjdG6euGDwULX/fGjMRvfqzmDUn9y5uE9eJJebeAxcEU/OI04/7VQ7/vhn2xlnvcV+/oufOWNFuay0yv7iF/faBz7yCfsrCRFC38lRekAq8fIvX6G1w0bBURtOAkyyCTv4oNUuEM11KVCwW2651a786nXeNszLBNLJXfuvVys5Nj/I33PJcnunBCK5lXvuZV/6wuV+Su5KRrgj1eBW0IR3wGP3sde++uVdoCco+bBkX/nyNXbZZVeo1WacCjK9X3bqC2xocHprozzUXuPdaD8lvGBktlrDbCpLMtLWKrtJ5Je5XiB7KDz5srilFcijLAQlHodeQkUcjbk0IO73F4hYCSAIyipJk7igICw868eFJ4VUd2FBOIR+Jpzj4xK6KXvTvUDzELWW84a8PecLPUZKhEIpey7YPitH7cqvfNYO+6NDxDzquHMTbBSeNdcXv/QV21qRjTeFE8lUi8aCrUNHyyB1bdupssoiOaxjZKJ5k16s0X7CIyYZwWXiIlt4JUfeXitX2ItffLKSJYT647cobVnC/lX7H//kP+oayXgIXqo4STgxVrYv/PNl4gFNdNUJwZJmdy/rQRPhOeecrbain5OAmbMsxqwnx4wfQsEZgxhbA8xA+dmEImiOZFZVVABhcK/4uMyI8gRe93AQCGGgGmJyEUGaYUBmU8lNp7KeJRQayJJMA+4EDhCSL0HgUK4kYjnBNG6MnZ9ZeBr8UlBbNeOiWjBgT13tWCnHJsrnKXyKtVYCl+HBeXbJP11oo8uXRvGs515W9HvwwQ128af+b45hm6FAp3BBsUbBwMYZOBVpCiNfFFKVxpAjk60+qqXy0Zv61rEyEb5Xnv5y3XMKLRI4MeVoftc4bdzwiN1914+nRW5MsG/efIs9yCJf2/SsNbmpy2qQcL8D9rU99mBN09SZHfrQoM4Mm8GGZnEcQiF2Ju6HbmJ8xSvEZQqVFZZFvLLuCIzr0ti4Zo9xhEFpE/LjEgpcUQQpweADCodqNjS/aPPmD2iWKCiU1tB9coSiqBmOAy+Yn/eO0B6hRcKUQov4CbYy0CQISBmTrEeiMuBdq4a94vhTpms5LxE/o7LJzzj9ND2gIRP0qMmLUFd86WrXorkq9aiXDg5UWr41GJKMema9jkccT4Y66rjOZPHS4vIQo2yYfXkhYgPjoMc/xkZHl6i5EIRoWbUlEGiu6667cVpMTP+v+vr1/lalbGiv6ygJFNr+3He8UeOcTZgqG/RqQXqOH3sWCAgWTC9yOLIIQZhHZd25cWbX7MyGxsREUYtLMSZCIIugPDFoY3one/sYAlGwbWPbxdwjNiTmHdYlJN6lHhDjz5fKnD+ktyBk8w6Ju8nn5LdU1AK7NC5BCF9CmOSVLS+hERGJ+3ZuaSAEoomBZkbFLmzWBETNRQtZ4XZ2i+JVSe8rT3+pzecFDmdgauJgvjFtxT6kBatU4bRdMGUweWPB3lodDVXR4hofJhazBXVzvWMoteivVsd1iBi+UtbiPaHoQIta05Xsgx/8O4eDXUU+h4tsfzD3XPaVq21M5g9ao5uj1QntyN148+2OQU0bEw7HNUTVVu2zwk485jjhmC1zURM7QVX0LBBoATeLpAFg/krymEfa8UAjuMCgLTRO5bJupEowEICxMXkJxNi2mm3bWtWVY834pQkdLA3YyLySLZo3aAvnD+rUVdpB66lBLaqGBriwN+i7UgPaOdKlCAlB+NhqRUOw85Q0RJhTjGWlnBv0biM0STow5tItXrzQjn3OcRrfxPiNFtg9uveee6dojvKtQ0cfG3BaAbzrvL+2u2//lt112012xqtfAwe3FmE20eL2cvvhHTfb3Xd8y+7+9s120/VXqWjM0vkKzzrqKFu2RKaf4Cg754q2dcsWnXarXi61PTpmn/nMZ1V2e5YlfDJzjhXDCc89WvSJtUMHTNvBzVFKK1WnDbb+HoRPUJp9ZDNxLblcEeNrlqloh8AX0eNoBc1LUg3bxysShIpt3z6mu0YV27SpYg+v13sMD+lTNJrhly8p2pKFQ7ZAptKwBGNI6wnMKMmFQo2XPGGYReysSAhENNYRHN75exMahQhj5owDQNm73SerafY5D4DZsNnVc7PRm4qwz3zqkwQjDXWCFvbzTTd+qw1+c2udnhKsDnmi016LSrZsdJHtsWKptNN8p52oFiGMl/k9lgzbniuW24rRpbZij2W+3onlcwMufRuU8Bx37LGKsR2rtllA4iG0Hr9+zW1ZBShTp06WRso8++rXb9CgasZscQuGRuxNr3mDxrQh4vQOv6PdVOPWtf2kIcJsgg5Sl1IZNXaRNCPHugGzquQ+mU1aRtg2CcPWbRO2ZcuY/f6BCfvpTzfasgUTtq8+HrB4gXbhB6syl/QWmMwkPGYQDI/pVKp7LbCFfQiH6EocAiIYuQHGdFIVpXXtyhQZquzs2TOpmuADBb/vvvvotx0pUn5y909aZl0ltjnwSi7DLZ+UsnKhjE3/i12bKfoDIu3o1aFR+5y3n61vanW+N3Xn979rj2zepFKUbG9rw8Pr7Vf3rvU8xsa9TxE136IelfA+Gq4d02liETtIXL+IrVTWDVYd1LVnDp/0xT5to5UlGOOyE8dZUEtTjGlBMaZFNeFmCcOGDWW9G/yITnM3yhQas+ULxmzJiNnIsNYRAzrmkUooSRiGtK6A+X194CTMyOyEZL2A1yzn5lIsrmMLlrjKSqsIoWn2rKWYYIdAkJ44hB3zKbivBUzr40h9DdGcA9R7fvfbRlPN2dlTHqc0hEpL6HWs00gsiNaMG4vUVt8oRQzYCT7PzX1etWKlHX5Yp3tYOhDVbeOLP/NlKnVwVTv/AxeLL3QI6SBTfyJ8+UtPUlfy7XYAsYOSZtEqDC8zSWsHvK8TMI2UxrYqu0eYSXSatLEJCYLUw9h2XaeQhsBv2TouP+YevnMh0DbrPLzWDkP6cp+WExIK7U/LoyEanu1XnqX4fUcpziXoUH3GEYPwMhImlQDMMQl7hJeN/Tx1UHq0HSfhykv+LbzXUi4xUEr2XuuB9ElcVs0D0aWTw/rp3rMMQKqoZl/5qlPcMkhJKURL/6sO+Sa0sdLsarIMynbdN67NYRtl2Bh43OMeZ898xp9oDFvrNUPZUU89CwSHaXUtwRmDZhy8zzjCltDPJqQpEAxMKzxC5FpijBDhGJcwwRhibM3kAzKVOI8IbRCzPjtLA2J6tIBf15AgxHkDzC/tINJCzNhpId7wRS7SMdvMCX0TkO4sM92B4sZrRye67Tm652Rc2bHaTBI7rac712/VqknwGqWff8KzbZ999NISk05GFqhEzTVr7rdNW7VoTmSjmnjkt0rftm2rjx2C42sU6mtd8dY3vl7h7OlLU7243gVCHatqIcE5RGL00BhJMxBKg0gYSEcoJqQlKmWeFXfzaUzm05hrEe0ziek5eFMsm/EHtChAA4TnZRu0AGYUi2gmfRFT3tcMIiJ/EDcWgfHMaHCAp72mXuij6tRtHaDZGkz6IuHGjV3x2XfvvbvmRUYrPql4t/SU3wi7lczzbqN0t5i+caLv+HK9QmelzYyvx3GN8/nvf1+QMIHQeJ1/wQecbxp0BRvGecKedcwz2gGlujsh7FkgJArSCCyaNRtIKCQf7hvXNziXYIeJE2kEAuFAK5RlUsnLlOLcoqqttoo8GtL3WDCBtCsS1zRYRIe1g8Xj2oBnPbhXml/sU5qquGDEekJC4FqkZtq9dfOLS2g9OVfdrWyCBurRxdjbL375KxBuA8IG51FHHtmW3p6Q6oLbNPuWtd0OK5eiMglyLnXS6AtfcKJPUJ0KXX3t9bYREzBzv3vgAb2Se4ee8q1EH84483TtNGoR2ZSXau6cUGzUm6uwtVrlxqoMFTefMKHkMYvE6G4mSTP4WYXGi9cqyzqf8O1YtmaV51//04m3VgdiAxbGLIIzZnfGb+wiuTCIhghGKhNCEGnwVniuEHA4F35Isw6dlGj11lFntiQQaRBhwJQ2M7DSq/53yx3flVnZTn5ocOIJxwnoVBot4ZIEYmp8UtuTmucCA6Tkp9O7/fffz55z3LE+IbWWxyy+957fKhmaVe32b/9IwNNYNPowqI2Ts153pkQh9SPltULcsc/tIzLN9mL9oL7VhQGNgPmEKYVwhPZAg/hdJg7s6r6R72s7/WDmxL0ktlPDJErbqMz6vr0qjk9mkguGaJZsUFYKrWYUMBct0urcRzcNwjQ7WC8GiVoHh+fWtHqFSSPU+vWv77O7fvTDDhCE7+Iltny5rkV0yG0A7tL+NBcHvIuSDsEaMCOWetWlhdbi/szmxuted4Zr+aiXmFoioBnxIx/5sMqFiH3qc5dqakoaLVqDB/bZR/eWlo4oZ+4/IdQR6S6JPV//Bh7H7dy1p0OcP/iCGhNKnQ/NIOHQotoX2EpIC/GKbnRWVV5y4yaTXrFz9PzEWYzgMz0mjwbY2VgJ/t5xjkmoEWsGAWHKExI+0G548cjZBeaSBj/+qYYGQkXdvvIWZ/pDZVwMZMRn+lu1D3300+q/PtQsMPQhHDHeadg3NJozd7SH0O/armiHHbpaGyL6KHU5Tp4DZaYks5tv/4E9sO4h+/2DD+rM6adKiXQGg3wu9V34ofdprGUhpFd0fJx2fq+Z/npySD7rhjCXCMPD5KEpwjyKfDG0hEdWkspFHEFhlgJO3qEy464jppEIJoqhDUJ7YFYFP8PsOvHwdNcOIm39PEKVWHwPlPQVO0lUYmNvBztrRk4N+bA1V2qC2ZzV9Yk63/jm7Xbtdf/Pd+DypktVJ7Y1bS2/45y3ygyNl5t8s6CjMAApj8H0+gS78YesdVMmPrd07UHnDCi0cP6Qvef8dyoWU1W+ATY1brz1O/a1a65vAUAfCnbAgY+xww57rOPWUmCnP06Pkh3RwjxijcDCWHHxtQtDJhiejhYQfTCV2G2C+TnAQ2DiurgI4ovddjQSM3CwxhZrLKglEBISv6ahUfCtV3BjRFTGB1nlqcPlwNGFIzYo3FTFHaKWZ6NIneoXgU21aAjHzJbSImXyX8rW7M4f/cTOOffdfkYT5RM84as11iGrD7Fjj/ojNw81dagIvptLee2061YjpbNe437SZC4wnqxEIy/14kXP+zObv3ipYKPXU2rQ71K9NXjtDbcoPeGbtaDgpBNPzKVDqQZ+afu+0RrwEDp8ihO2+uhfh5Mele3uejeZ1J7fE2KHSfF08gmjh+ZQmnCMMuQTRzvIgpSJlBSDf5axFT/REnK6qaCKrBvgar8zk5WF5EoJUzib7vLnx9JHujbOjVKQYBAaLJyGKgM1RTBJ6UmyElAGdIt2Wb52zTfsr9/9d8KG12QTUwAgBq6oG6RvffNr9CaaMBVx0HDdXdRp5AMPBpnCpWouDOmhuQ6kBCv8jJzAjeia/lMOPcRu+86dqp/6CJSCrqNoMa00H9MMMCOyaNE8e8PZZ0R5UMoaZmwxIXHsZo7p1gPjj1nd7hp9oV78401LHe7OsDM9CwQNM+MzeAgE07N/d8mFAOSVpB+0CGG8RacdKTGnC4bP1tIg3jukO1zSDHSKmZ0c5vUgJJoF4VKYEQvYrDUkYr6UKGKGiWYLF+rDyG6PqosZkTuRMrU7vVCNuxNASb02j6UZ5zd9b9wnA73xxSBu377drrzqKnv/BR+xR3R3KxhC6NTNoNj3QUm+4iUn2wnHPdvzQo/NHtvAdSf9iiTI2Yff+zf2DH08mTEKwjPeKZ7oB06MYMGeq698LOA6AiOdjRPp/OEI12+u2lGvv88nUd2X9nRtcDrjJ0Uncnt9Vp0IDeJ0ytEj9oHX7xUZXmvqn54FgjOFqrBiMGmctUJoAHVNcV9jiDvQENCDT5ukfG7GupBAH/d5QqlfWeecjvU+IBoZxRSDXQQxkkQVXYz1VAgzPFDWNfJhb7fOe2T34pzSzczJIGEWnPTCM4XruJ70oYHMgdO2bVtsm4Rh67btfv4CammAQaohEJpHJcBP/uND7R3nvk2aUDMoXeo4C6YWCDMC5ZOcIg36NGW1PDipWtLSI92dHpRUIx8WbcWKFbb64IPtZz/7uTKAFL2HD/KO/7agWtlmL3/ZSybvsyMTGFULqmMLHUwLuIyPaJGxYtGezKqZ9aZngaCbriGc0YPZedY/jTlCQBpxyqmwh0LS05VPfX5wTThnieJk1g1BD9KCpXgOYcgTmHy1x9mD/hYv0g7OdEwI1ZrS+RREW7RK67A8f9o+/c0aJbEAbpg30MBxjaJe3vuQ4e8gSCVRa6mn6JORl3z6k/qCn7aHe3JgkmgRLXUFk2Vzvwvf2QEr+tA5f5JUJiadJ7zslJO0wP53mX8yD51S7XXggCOe+hT748Of0J7ZklLDVHDcCWNV0K2nns4s6BLTGJcWkF0fm6e+rsXaM9hCxSXGD43Acz4NTRFprkFEBLRD1MsJhHrratV7owp6NwL7kqkjOuhV9JOEgnRmWqW44AS7FrU2WbhAc4QIWJ+RU9WeQ/qJd0wyKDBMCCAtpxJeKsPHC1LFnxPeWXUF4ht78akn2RWXX6r/gnjE8XXZaxSZZiy1PnXxMNDAnRmUsJPL+qYsIE/PUSfqQaZXvOQUffF8eUayzvjxhuPrznyV7xQ6ZTs2Fom8hVfPZiaZxPtEQ2kHOj3s86V6Fwi17EwuOuSZPrQEmiI8AhLmlPqheMytIQCQMHWV8qkPTcysRH8m9DghA5r9ebpbjlrUDeqVU10M9Dz9Tml65EnRLa4GBC98cxlScR4yYnjazoTCw1QX5ImLCPvvt8ou/uSF9v7/8y7fMEhwyK7HAdXiOueR2jmnpXrjMbgme06IpzA0YQ9Q6/C5yfv85z9PWDHOnSEt0AtgfJKTLfYGt9dBNEX8s6gaS/8POhM4hf4BvCw9xX2CIi3RxMfEf5pgdnuYhUBEI0kjwNDRM8ylIETKC0HIiKNqnu9USL3TkKaZNAtjkGHqxGCxaeqX+TiM0E4NGLhmUQPsKCwcYQg4lchc08CnxDkKo3PRZSGC7RqekVIbajs+5aJ0rRN4/XXFniv12cqL7IbrvqgPmf2J3gHReyNsQfuaK0KqdnOpX14mPajVetQb7lY7cAztoLHwWmnMHGFV7NB6yspyO5RQDmzU8Mj+yaf+mdYIYQ0os839xZveqI0PrfPAo9GBrFxqJcvAGpE5XJBWCZMJvJlA230+nbgvUDr1qw2jSOh9DSEc3fphMMUcad0Q2gKhEHk9PR+SHjqijo/33X/qSREhDd8ssxDbD+fI0gOkWTCsjxHIBGGYc+JAwqxdnKPQWDa47CI0ETgE1jvsrakstrTQXqVT56c//en23048zp542GpdTVjm73zk0eJzOjN1QWvRMjNbEbiqPq3JTWImkG4u5fjYMFCtNppQjzMiiXaywVOlDGjLY+emBGf1gY/3j7SNj7dexdCFy/nDduopJ6tuRjugQOJWl6UN1HTAqo8dVPVWZgxqhkX9TlSuIn3KsquVtNkxfRr3LBC0Wx8YzYb+9T3SXEDQBuQTauD482fCiCNE3Ix1RiOzxTGwnDxTscqaAENSaV6UsVT5IaUPDXIFGSYlJaME4BTNAj306qr2jx86319u8g8U55gN4aMF/+Unta3YfJ3a8tVBrjJwETHveHKtpnAy5s3XSXGHpJ/brr/SYbhoZuBdC+n+PLAng0vxvzj7VfbqV56qcmhgsUDSpKL30mUjvtvlE1EGu6n99DBFeP111/kFzxiFRmE+a3r4oQfY0qW8Ihr0oxlQaDSXYvTQbKnWWHdc/AQ//J3s1jI0iNcBoIOu7WiiNAmTFZJg+EAJYoLv4Jt+ehYIv6nJhr8Dd7bw7tHFuiAIqxAa4eVxz3Vk61i4lDfOEx1VxzvKJuTdMFAmHxDgo1aD+rwM32sKFZnbTUh9Vg7R7l2vYzBpZPGSxTTaUqYVagxcoxD5rWVyuTnBaqROL4ZpujT7IHFrq1POgxlBhoeHxSwwSZ5CgW9NZyhdXSJD9655VUbuXy67RtobgyjRIirzn72c/7/f4xo08gKLzm3So6qu4JgtWczOITeXu7MsAsFk4OhlXdM7lTF8dZzzfW5vtTv09rJNKc7g6nArwzNgSCc+HMza3ZYM7FNZsREdEh3QOHwiETDsumE5+aysD5fxWZrG4OeEATD1jnsVUmbhvFHVB2gr++Ua8vzU4QZms2i4a1WnTyZQtESrGXm61qln5FBmxdNErKwQRqe7XNksq1PxelY+8sOf3GN3/uBOJTFTN9PtoP1X2uqDHudmb75Ox7ibpzkRqHGAJyfcZDcoyGgNAZRW9fJZgQx/vXaUw5vELINiHVzPAsH1Az+ZBjXMJMyfpAWYxSWtda1QT1c55cVLQfRCTuViAUo8Y+IsRI1SiotvDCDf+qybA2RM3jcVmEs3GaNPTei5wqTe/wzgXLfcCn8meCdz7aMXfszH3i1eDRKTY1KKJ7/oFL+F7AM75fhNRvMMM/ggc5xBzdb1LBBj+ppGVV9v4HCJ9x84CPGDNPW+gACgMBVWKnz4VrNErLY1/4ip6YS4nXL+OrW+ElfUe9QIWJxxZR0TwSRWNpi+3pbv7ZTEzBee6zgdeFQRmOsOzQk8Lgxu0dcmvvc9vu3KFYoct6qF0aWjdsaZr3DemPmWuGAlqXLqN3hkTpDPgPQsEBe87UBbt22+/x8BAYvP08s04v0H/THzE2LRJfOKZBwB/78crlSTXaiF8d77LXZTiS9RxGIvymUWoZdN9eFFFDEQHh22zDryKLUexNj1flkzvPe9H9PX+PTKqAYmqBQmE+P4vOc9Rx+fa9oHnEEn4KaAWDeVvDZpGRfkojMA3FS0Z4FYObrc9pRxr7efM4AJ4cSiKWxqL/eQda6md2hVVJuGoiDEaqi9Ngi5BKK5xxzcnRF99FreGb3rtQ2+t3X1VXxeJs+ZQSsm95fqvyZuyppRQzE1BtfkK87tWPQsEByMNVgXBEF4JshlZbOA/xolXDPULLEtmElLbZVnnfDotj5r9HcQgDtuv9M2PvyIWAG2TUIRtDryyKfZE/WfOWImy2ToYTYLOJNSftLM6XV6etw3PVizLzUHHZo9En0IvVCAD0ace+55EgMmNtiqMZhsjpyl/+pLn5aQOayH3Fqgl7Z2ZJ3eNcSOxKoP+w+KAuiCu/Su9EOP8B+fIApJIBCKoo2MDNlRRzxZh6v61Cn/2c0MbYmdSYxdS0PszJ7325ozCmABfeLjn/WZP79t66+p6rr2u97xdj+9RzywpuKUf86an1NAfQ0xp+T8rwnsHv1/Ft+8+SbfanUKiPPRGrh5Opl+/onHh+ZQeuvKM0rtOr99gdh1xuIPEhMYf936B+3kU/67Zn79vxP0wrWAQp0cL99jxEb13/QmUyTlR0EK71pOi34UXt/1KTBXFGi+qoGBFC6Fc9XOjoGTBHfHQO9D7VMgUSA37baKTCqyK4R9k2lXGIXdCoe8JsjFc9FdeRbuC8RuxYy7QmdynL8roDNDHHZlYZ1hV/rF+xSYPQX6AjF7GvYh7EYU6AvEbjSY/a7MngL/H/16IlwkHY9aAAAAAElFTkSuQmCC;" vertex="1" parent="1">
                    <mxGeometry x="476" y="570" width="146" height="53.63" as="geometry"/>
                </mxCell>
                <mxCell id="17" style="edgeStyle=none;html=1;exitX=0.5;exitY=1;exitDx=0;exitDy=0;exitPerimeter=0;endArrow=classicThin;endFill=1;strokeColor=#424242;" edge="1" parent="1">
                    <mxGeometry relative="1" as="geometry">
                        <mxPoint x="570" y="568.37" as="sourcePoint"/>
                        <mxPoint x="570" y="478" as="targetPoint"/>
                    </mxGeometry>
                </mxCell>
            </root>
        </mxGraphModel>
    </diagram>
</mxfile>